<?xml version="1.0" standalone="no"?>
<!DOCTYPE svg PUBLIC "-//W3C//DTD SVG 20010904//EN"
 "http://www.w3.org/TR/2001/REC-SVG-20010904/DTD/svg10.dtd">
<svg version="1.0" xmlns="http://www.w3.org/2000/svg"
 width="1024.000000pt" height="1024.000000pt" viewBox="0 0 1024.000000 1024.000000"
 preserveAspectRatio="xMidYMid meet">

<g transform="translate(0.000000,1024.000000) scale(0.100000,-0.100000)"
fill="#000000" stroke="none">
<path d="M4865 7872 c-126 -44 -347 -121 -490 -172 -143 -50 -341 -120 -440
-155 -99 -35 -238 -85 -310 -110 -71 -26 -200 -70 -285 -100 -169 -57 -882
-305 -1049 -363 -134 -48 -160 -76 -171 -184 -7 -66 -9 -721 -10 -2655 l0
-673 -135 0 c-131 0 -137 -1 -160 -25 -31 -30 -33 -82 -4 -119 20 -26 20 -26
168 -26 132 0 150 -2 165 -19 9 -10 33 -25 54 -34 47 -19 277 -87 297 -87 8 0
15 -4 15 -9 0 -5 -167 -9 -392 -10 l-393 -1 -23 -26 c-31 -36 -29 -79 7 -115
l29 -29 679 0 679 0 108 -39 c60 -22 154 -54 210 -73 l101 -33 -736 -5 c-707
-5 -738 -6 -758 -24 -30 -28 -29 -89 4 -121 l24 -25 941 0 941 0 77 -30 c42
-16 121 -45 176 -63 84 -29 94 -35 70 -40 -16 -3 -411 -6 -879 -6 -810 -1
-851 -2 -875 -20 -34 -25 -39 -87 -10 -119 20 -21 26 -22 228 -22 114 0 592
-2 1062 -4 l855 -5 150 -53 150 -53 -143 -5 c-142 -5 -144 -5 -168 -33 -31
-36 -31 -78 0 -114 l24 -28 830 0 c794 0 831 1 850 19 12 10 24 31 27 46 7 32
-15 84 -40 94 -9 3 -166 6 -349 6 -384 0 -674 9 -653 21 8 5 68 28 135 53
l120 44 664 7 c650 7 663 8 686 28 30 28 30 88 0 117 -21 19 -35 20 -412 22
-215 1 -402 3 -416 4 -14 1 -45 3 -70 4 -42 1 -33 6 125 65 l170 64 948 1 949
0 29 29 c42 43 34 106 -18 130 -17 8 -249 11 -785 11 -436 0 -758 4 -752 9 5
5 90 37 189 72 l180 64 693 5 694 5 24 28 c29 34 31 76 3 111 l-20 26 -382 0
c-216 0 -375 4 -367 9 8 5 80 27 160 50 104 30 156 51 182 72 37 29 37 29 172
29 133 0 135 0 155 26 29 37 27 89 -4 119 -23 24 -30 25 -150 25 l-125 0 0
1673 c0 1154 -3 1684 -11 1710 -6 22 -25 54 -42 73 -28 30 -63 45 -292 123
-143 49 -377 131 -520 181 -143 50 -402 141 -575 201 -173 61 -391 137 -485
170 -93 34 -293 103 -445 155 -151 53 -338 118 -415 145 -77 27 -156 52 -175
55 -27 4 -90 -14 -265 -74z m516 -253 c140 -50 264 -93 277 -96 12 -3 22 -8
22 -12 0 -3 -66 -30 -146 -60 l-145 -54 -172 60 c-95 33 -229 80 -299 104 -70
24 -124 46 -122 49 13 13 272 99 300 99 17 1 145 -40 285 -90z m779 -270 c100
-34 178 -65 173 -70 -4 -4 -71 -31 -148 -59 -383 -141 -1155 -462 -1434 -596
-74 -35 -142 -64 -152 -64 -9 0 -82 23 -161 51 -79 27 -150 53 -158 56 -27 9
426 229 835 405 162 70 720 296 815 331 30 11 52 6 230 -54z m-1185 -29 c60
-17 113 -33 118 -37 9 -5 -59 -37 -313 -143 -164 -69 -506 -231 -649 -307
l-113 -61 -179 60 c-98 33 -179 63 -179 67 0 9 374 192 525 256 208 89 554
192 651 194 17 1 79 -13 139 -29z m-1197 -133 c-78 -40 -195 -105 -258 -144
l-115 -72 -82 27 c-45 15 -83 29 -83 32 0 3 21 13 48 23 103 39 608 207 620
207 8 0 -51 -33 -130 -73z m3025 -87 c104 -34 185 -66 180 -70 -4 -3 -75 -30
-158 -59 -408 -142 -991 -366 -1328 -509 l-117 -50 -78 30 c-42 16 -105 39
-140 51 l-63 21 -111 -37 c-61 -21 -113 -36 -116 -33 -3 4 -3 8 -1 10 19 17
236 114 589 264 366 154 1129 453 1145 448 6 -2 95 -31 198 -66z m-3752 -219
c772 -261 1559 -540 1559 -552 0 -3 -39 -21 -87 -39 -107 -40 -136 -59 -157
-105 -14 -30 -21 -35 -39 -29 -62 19 -556 206 -797 302 -151 60 -345 136 -430
169 -595 234 -577 226 -546 237 16 6 79 30 140 52 61 23 113 42 117 43 3 0
111 -35 240 -78z m4459 34 c74 -25 142 -48 150 -51 8 -3 -81 -42 -200 -88
-118 -46 -366 -145 -550 -220 -526 -216 -1021 -411 -1024 -404 -29 73 -69 104
-169 133 -33 9 -55 20 -50 25 4 4 37 19 73 33 36 14 241 95 455 180 215 85
476 186 580 225 374 140 570 211 585 212 9 0 76 -20 150 -45z m-4932 -348
l202 -71 1 -488 c1 -268 1 -578 1 -688 0 -1467 -3 -2010 -12 -2010 -16 0 -404
142 -417 153 -10 7 -13 339 -13 1599 0 1510 1 1590 18 1583 9 -3 108 -38 220
-78z m4942 -1621 l0 -1594 -47 -16 c-26 -9 -50 -16 -55 -16 -4 0 -8 717 -8
1593 l0 1593 48 16 c26 9 50 17 55 17 4 1 7 -716 7 -1593z m-4115 1285 c834
-287 919 -318 926 -337 8 -22 12 -367 4 -375 -3 -3 -148 43 -323 102 -678 230
-918 312 -949 325 l-33 13 0 200 c0 156 3 199 13 196 6 -2 170 -58 362 -124z
m3765 120 c0 -14 -22 -27 -65 -41 -22 -7 -85 -29 -140 -50 -55 -21 -181 -68
-280 -103 -99 -36 -308 -112 -465 -170 -317 -117 -340 -124 -340 -108 0 13 6
16 150 66 144 51 630 229 885 325 273 102 255 96 255 81z m-1884 -111 c92 -34
173 -64 181 -68 17 -10 7 -15 -171 -83 -72 -27 -141 -54 -154 -59 -19 -8 -57
2 -200 56 -220 82 -215 79 -177 95 65 26 331 118 342 118 6 1 87 -26 179 -59z
m1866 -177 c2 -54 -1 -101 -7 -108 -5 -7 -71 -33 -145 -58 -74 -25 -265 -92
-425 -150 -352 -128 -686 -247 -691 -247 -2 0 -4 45 -4 99 l0 100 58 21 c31
12 134 50 227 85 94 34 244 90 335 123 492 183 626 231 637 232 8 0 13 -30 15
-97z m-2451 -157 c96 -35 191 -70 212 -79 l37 -16 0 -1647 c0 -1564 -1 -1646
-17 -1639 -10 3 -107 38 -215 77 l-198 71 0 1649 c0 906 2 1648 4 1648 2 0 82
-29 177 -64z m809 -111 l0 -95 -33 0 c-55 0 -104 -62 -91 -116 8 -33 60 -74
93 -74 26 0 29 -4 35 -46 8 -61 8 -2288 0 -2386 l-7 -76 -38 -6 c-76 -12 -104
-97 -51 -156 19 -22 37 -31 59 -32 30 -1 31 -2 35 -52 2 -28 1 -73 -2 -100
l-5 -49 -90 -33 c-49 -19 -96 -34 -103 -34 -10 0 -12 331 -10 1637 l3 1637 95
38 c52 20 98 37 103 37 4 1 7 -42 7 -94z m-2158 -217 l278 -93 0 -151 0 -152
-137 -108 c-76 -59 -203 -160 -283 -224 l-145 -116 0 468 c0 257 2 468 5 468
2 0 130 -42 282 -92z m4438 -78 c18 -18 20 -33 20 -174 0 -149 -1 -155 -22
-170 -31 -22 -51 -20 -77 8 -22 23 -22 30 -19 176 3 136 5 153 22 166 27 19
52 18 76 -6z m-785 -104 l160 -113 3 -211 c1 -117 -1 -212 -5 -212 -13 0 -154
113 -148 118 3 4 20 11 38 17 36 11 54 47 43 88 -4 16 -31 45 -69 74 -151 115
-347 275 -347 283 0 7 144 69 160 69 3 0 77 -51 165 -113z m-3172 18 c26 -9
49 -19 52 -24 2 -4 -22 -29 -55 -54 l-60 -47 0 70 c0 39 4 71 8 71 5 0 29 -7
55 -16z m2374 -191 c96 -82 236 -199 311 -262 76 -63 209 -176 298 -252 88
-75 194 -164 235 -198 41 -34 84 -70 97 -80 21 -19 32 -76 13 -69 -6 2 -105
84 -222 183 -371 315 -539 457 -744 629 -110 92 -201 172 -203 176 -2 5 5 10
15 13 10 3 20 5 22 6 2 0 82 -65 178 -146z m-1959 110 l82 -28 -2 -245 -3
-245 -351 -290 c-194 -159 -416 -344 -495 -410 -79 -67 -161 -133 -181 -149
l-37 -28 -116 39 -115 38 1 225 0 225 562 448 c309 246 564 447 567 447 3 0
42 -12 88 -27z m1832 -272 c96 -80 200 -166 230 -191 231 -195 482 -407 625
-530 94 -80 183 -155 198 -167 24 -19 27 -27 27 -87 0 -46 -4 -66 -12 -66 -7
0 -59 -18 -115 -41 -57 -23 -109 -39 -115 -36 -12 5 -578 487 -895 763 l-143
124 0 196 c0 153 3 194 13 188 6 -4 91 -73 187 -153z m-80 -1042 l0 -328 27
-20 c14 -12 24 -23 22 -24 -6 -5 -125 -47 -133 -47 -3 0 -6 183 -6 406 l0 405
45 -32 45 -32 0 -328z m-1736 -397 c-4 -7 -615 206 -627 217 -5 5 47 54 115
109 67 55 209 172 313 260 l190 159 5 -371 c3 -204 5 -372 4 -374z m2896 184
l0 -53 -107 -46 c-234 -100 -1141 -447 -1168 -447 -3 0 -5 28 -3 61 l3 62 75
28 c107 42 1129 425 1165 437 17 6 31 11 33 11 1 1 2 -23 2 -53z m-3759 -80
c200 -68 492 -169 649 -223 l285 -100 3 -132 3 -132 -28 7 c-15 4 -309 105
-653 224 l-625 217 -3 132 c-1 72 -1 131 1 131 3 0 168 -56 368 -124z m3452
-396 c-12 -10 -951 -410 -963 -410 -7 0 -10 20 -8 52 l3 53 170 72 c94 40 312
132 485 205 l315 134 3 -50 c2 -27 0 -52 -5 -56z m-3458 -31 c176 -61 456
-157 623 -215 167 -57 308 -106 313 -110 9 -5 13 -187 4 -196 -6 -6 -152 46
-810 289 -247 91 -456 170 -462 176 -9 6 -13 37 -13 88 0 57 4 79 13 79 6 0
156 -50 332 -111z"/>
<path d="M2523 6423 c-34 -7 -63 -50 -63 -93 0 -30 6 -44 31 -64 42 -36 83
-34 120 5 30 33 38 74 19 110 -10 18 -61 50 -77 48 -4 -1 -18 -4 -30 -6z"/>
<path d="M2475 5565 c-50 -49 -17 -145 50 -145 40 0 75 41 75 90 0 75 -73 108
-125 55z"/>
<path d="M2465 5264 c-52 -56 -16 -144 59 -144 64 0 101 90 60 148 -23 33 -87
31 -119 -4z"/>
<path d="M2475 4955 c-17 -16 -25 -35 -25 -60 0 -80 95 -117 148 -59 28 32 29
83 1 118 -28 36 -89 37 -124 1z"/>
<path d="M2523 4045 c-67 -47 -11 -181 60 -143 33 17 46 39 47 79 0 62 -58 98
-107 64z"/>
<path d="M2493 3762 c-67 -51 -32 -162 51 -162 38 0 54 9 77 46 15 24 19 42
14 64 -13 61 -93 90 -142 52z"/>
<path d="M4671 5674 c-29 -37 -29 -104 2 -131 33 -30 54 -34 92 -19 40 17 69
67 60 103 -17 71 -113 100 -154 47z"/>
<path d="M4683 2982 c-48 -38 -52 -110 -9 -151 48 -45 131 -18 150 47 23 83
-76 156 -141 104z"/>
<path d="M2543 7730 c-44 -27 -65 -62 -65 -112 -2 -85 52 -142 132 -142 116 1
184 106 132 203 -36 66 -133 91 -199 51z"/>
<path d="M7525 7740 c-11 -4 -33 -22 -49 -38 -54 -58 -42 -156 26 -206 35 -25
110 -26 154 -3 43 22 78 95 70 141 -16 87 -118 141 -201 106z"/>
<path d="M7299 2481 c-31 -25 -33 -92 -4 -121 18 -17 36 -19 209 -21 l189 -2
24 27 c30 36 30 80 -2 111 -24 25 -26 25 -208 25 -166 0 -187 -2 -208 -19z"/>
<path d="M3558 2213 c-34 -5 -68 -47 -68 -84 0 -15 11 -41 24 -56 21 -24 32
-28 76 -28 44 0 55 4 76 28 25 30 31 66 14 98 -12 21 -61 50 -82 48 -7 -1 -25
-4 -40 -6z"/>
<path d="M2770 2190 c-46 -46 -33 -112 27 -137 30 -12 64 -14 163 -11 69 3
132 8 141 12 42 18 50 96 14 131 -23 24 -28 25 -175 25 -136 0 -152 -2 -170
-20z"/>
<path d="M4005 2185 c-34 -33 -34 -83 0 -115 23 -22 37 -25 123 -28 73 -3 107
0 135 11 61 26 73 92 25 137 -19 18 -35 20 -140 20 -113 0 -120 -1 -143 -25z"/>
<path d="M6660 2190 c-27 -27 -27 -93 -1 -119 11 -11 35 -23 53 -26 18 -3 181
-5 361 -3 l329 3 24 28 c31 37 31 81 -1 112 l-24 25 -361 0 c-347 0 -361 -1
-380 -20z"/>
</g>
</svg>
