<?xml version="1.0" standalone="no"?>
<!DOCTYPE svg PUBLIC "-//W3C//DTD SVG 20010904//EN"
 "http://www.w3.org/TR/2001/REC-SVG-20010904/DTD/svg10.dtd">
<svg version="1.0" xmlns="http://www.w3.org/2000/svg"
 width="1024.000000pt" height="1024.000000pt" viewBox="0 0 1024.000000 1024.000000"
 preserveAspectRatio="xMidYMid meet">

<g transform="translate(0.000000,1024.000000) scale(0.100000,-0.100000)"
fill="#000000" stroke="none">
<path d="M4850 8933 c-437 -42 -757 -121 -1131 -279 -508 -214 -880 -466
-1250 -849 -658 -679 -1022 -1503 -1081 -2443 -38 -611 90 -1257 362 -1817
328 -675 899 -1278 1555 -1643 478 -265 973 -416 1524 -463 303 -25 764 1
1069 61 540 106 1037 332 1502 681 471 355 855 811 1109 1321 221 440 341 870
382 1363 15 176 6 596 -15 761 -27 205 -82 455 -148 668 -244 794 -831 1571
-1533 2028 -368 240 -760 411 -1190 517 -296 73 -548 101 -890 99 -126 -1
-246 -3 -265 -5z m770 -326 c822 -125 1561 -528 2104 -1147 323 -368 558 -774
699 -1205 76 -234 135 -494 156 -690 6 -55 13 -121 16 -147 l6 -48 -956 0
c-877 0 -955 -1 -955 -16 0 -9 5 -45 12 -79 l11 -63 195 -7 c107 -4 219 -5
250 -1 30 4 367 3 749 0 l693 -7 0 -78 0 -77 -97 -6 c-138 -9 -443 -36 -474
-42 l-25 -6 28 -31 c16 -17 36 -43 44 -59 8 -15 16 -29 17 -30 1 -1 112 -4
246 -7 l245 -6 -3 -60 c-3 -95 -4 -95 -73 -95 -60 0 -351 -20 -356 -25 -1 -1
1 -34 4 -73 l7 -70 183 -4 c100 -2 186 -6 190 -10 4 -4 1 -38 -7 -74 -16 -77
7 -68 -204 -78 -72 -4 -143 -10 -159 -14 -29 -8 -35 -19 -70 -129 l-7 -23 153
0 c84 0 169 -3 190 -6 l36 -6 -14 -52 c-33 -113 -11 -101 -212 -114 -97 -7
-193 -12 -213 -12 -29 0 -51 -13 -123 -70 -48 -39 -113 -84 -144 -100 l-57
-29 314 6 313 6 -7 -24 c-4 -13 -18 -45 -31 -70 l-23 -47 -128 -6 c-70 -4
-240 -14 -378 -21 -575 -33 -671 -37 -707 -32 -21 3 -38 2 -38 -3 0 -14 88
-88 130 -110 69 -35 163 -49 410 -60 406 -19 561 -28 567 -33 11 -12 -60 -97
-81 -97 -12 0 -219 -11 -461 -25 -242 -14 -536 -28 -653 -32 l-213 -6 33 -34
c43 -46 106 -82 169 -98 58 -15 297 -37 679 -61 140 -8 257 -18 259 -20 3 -2
-8 -17 -22 -32 l-27 -28 -238 -12 c-257 -14 -579 -34 -902 -57 -113 -8 -256
-17 -318 -21 -109 -6 -113 -7 -108 -28 3 -11 9 -37 12 -57 6 -35 9 -37 53 -43
25 -3 258 -17 516 -31 665 -35 695 -37 694 -44 0 -3 -15 -18 -32 -32 -32 -26
-33 -26 -387 -48 -499 -30 -687 -41 -749 -43 l-53 -1 6 -51 c3 -28 6 -63 6
-78 0 -16 3 -27 8 -26 4 1 36 -1 72 -5 36 -4 185 -18 332 -32 317 -29 356 -35
335 -46 -20 -12 -279 -44 -520 -65 -175 -16 -197 -20 -192 -34 3 -9 12 -52 20
-96 9 -43 19 -82 23 -86 4 -4 34 -14 67 -21 57 -13 59 -14 36 -26 -33 -18
-253 -101 -267 -101 -6 0 -14 15 -17 32 -3 18 -22 100 -41 181 -19 82 -44 226
-56 320 -26 214 -44 320 -81 468 -29 118 -119 390 -146 443 l-15 30 41 -33
c22 -18 70 -64 105 -103 l65 -71 25 29 c14 16 44 67 68 114 24 47 44 87 46 89
1 3 42 -35 91 -83 l88 -88 49 52 c103 110 180 240 217 369 l24 83 34 -47 34
-47 6 28 c12 54 9 222 -5 296 -20 104 -71 251 -116 335 -34 64 -37 75 -29 110
14 60 11 183 -7 248 -17 69 -83 197 -122 238 -71 75 87 -22 168 -103 72 -72
144 -176 245 -355 139 -245 220 -343 335 -404 242 -129 536 -32 661 218 56
112 72 197 73 391 1 199 -2 209 -77 257 -70 44 -151 64 -283 70 -125 6 -224
-5 -295 -33 -46 -19 -47 -22 -90 -259 -16 -93 -33 -173 -38 -178 -4 -4 -69 64
-145 152 -146 170 -244 268 -321 321 -60 42 -207 110 -235 110 -18 0 -21 4
-16 23 39 137 19 246 -64 341 -17 18 -30 36 -30 39 0 3 12 8 28 12 54 13 113
48 127 76 34 64 12 114 -100 229 -101 103 -228 255 -263 314 l-33 54 37 34
c49 46 57 110 22 179 l-24 46 58 12 c135 28 281 88 388 161 56 38 150 131 150
149 0 15 -385 127 -692 202 l-138 33 0 38 c0 53 -24 106 -67 150 l-36 37 25
48 c77 141 120 326 121 518 1 215 -32 325 -122 416 -78 77 -129 94 -281 93
-474 -6 -1325 -438 -2088 -1061 -642 -524 -945 -860 -960 -1062 -8 -109 52
-197 176 -260 89 -45 164 -61 315 -68 l137 -6 30 -95 c36 -117 68 -173 113
-196 33 -18 34 -21 44 -110 8 -61 30 -145 67 -258 31 -91 56 -171 56 -176 0
-5 -28 -3 -62 5 -108 22 -387 61 -528 74 -144 12 -231 5 -303 -25 l-37 -16 6
-58 c25 -245 46 -366 104 -607 55 -229 80 -347 105 -500 14 -82 27 -164 30
-182 6 -31 4 -33 -62 -67 -101 -51 -276 -159 -377 -233 -49 -35 -94 -67 -101
-70 -13 -4 -115 149 -115 173 0 14 70 68 154 118 l56 34 -93 10 c-50 6 -121
14 -156 18 l-63 6 -29 64 c-16 35 -29 68 -29 74 0 11 324 12 478 2 53 -4 92
-3 92 2 0 5 -14 31 -31 58 -37 57 -91 91 -169 107 -72 15 -318 41 -390 41 -34
0 -62 5 -68 13 -16 19 -56 156 -49 164 10 10 414 -14 527 -32 52 -8 96 -12 98
-10 6 6 -37 65 -81 112 -63 66 -140 83 -459 99 l-137 7 -15 68 c-9 37 -16 73
-16 80 0 15 457 6 534 -11 27 -5 50 -9 52 -7 5 4 -43 158 -52 166 -10 10 -330
31 -470 31 l-91 0 -7 38 c-3 20 -6 56 -6 80 l0 42 316 0 317 0 -7 46 c-3 26
-6 57 -6 69 0 21 -6 23 -122 34 -114 11 -427 31 -490 31 l-28 0 0 80 0 80 392
0 391 0 53 25 c96 45 174 58 324 52 82 -4 166 -14 215 -26 44 -11 81 -18 82
-17 1 1 -5 32 -13 69 l-16 67 -709 0 -709 0 0 34 c0 119 58 445 121 680 208
778 741 1522 1414 1973 493 331 1016 515 1640 577 22 2 164 3 315 1 232 -3
301 -7 440 -28z m104 -531 c38 -16 79 -65 95 -116 17 -55 29 -208 22 -290 l-6
-75 -7 95 c-8 98 -36 218 -66 276 -17 33 -17 31 -17 -109 -1 -157 -16 -252
-62 -376 -32 -84 -7 -67 -248 -166 -293 -120 -542 -249 -1122 -581 -298 -171
-431 -241 -379 -199 28 21 23 20 -108 -25 -195 -67 -622 -243 -757 -311 -32
-16 -59 -27 -59 -24 0 7 484 328 618 410 61 37 111 69 110 71 -6 6 -302 -98
-403 -141 -136 -58 -328 -151 -415 -201 -36 -20 -60 -32 -55 -27 17 16 210
152 450 318 127 87 291 204 365 260 74 56 148 110 163 120 15 10 26 19 24 21
-6 6 -198 -86 -292 -138 -155 -87 -491 -285 -565 -333 -120 -78 -123 -81 95
99 66 55 197 168 290 251 299 265 513 434 760 601 404 272 927 529 1198 588
86 19 327 20 371 2z m16 -953 l21 -27 -38 -11 c-67 -20 -391 -165 -579 -259
l-181 -91 -26 42 -26 43 72 40 c102 58 276 141 387 186 85 34 306 102 337 103
6 1 21 -11 33 -26z m210 -253 c63 -16 220 -60 348 -97 196 -58 229 -70 215
-80 -28 -22 -219 -93 -303 -114 -178 -44 -404 -68 -710 -74 l-225 -5 120 24
c178 36 296 63 303 71 10 11 -447 -2 -493 -14 -22 -5 -40 -9 -42 -8 -1 2 44
30 100 64 145 88 506 263 542 263 17 0 82 -14 145 -30z m-1099 -109 c17 -18
29 -40 29 -56 0 -29 -48 -85 -73 -85 -8 0 -29 10 -48 23 -27 18 -35 30 -37 61
-7 79 72 114 129 57z m449 -25 c0 -2 -30 -21 -67 -42 -38 -20 -178 -103 -313
-184 -636 -382 -844 -488 -1385 -702 -27 -11 -48 -18 -45 -15 20 18 262 194
335 244 190 127 466 284 770 436 116 58 135 65 166 58 41 -9 101 6 156 40 27
16 296 135 381 168 1 1 2 -1 2 -3z m-431 -951 c33 -92 90 -180 191 -295 107
-121 143 -175 199 -291 45 -93 90 -170 91 -153 0 10 -17 111 -25 151 -4 19 6
15 85 -31 49 -30 136 -69 192 -89 57 -20 111 -38 120 -42 12 -5 22 3 37 32 22
45 80 117 116 145 l25 19 -5 -93 c-5 -77 -3 -89 6 -68 7 14 32 67 56 118 89
188 203 254 321 182 47 -29 72 -76 72 -134 0 -68 -32 -119 -124 -194 -133
-111 -210 -220 -242 -342 -23 -90 -15 -175 22 -237 l29 -48 6 66 c10 123 97
265 207 341 56 39 76 33 144 -40 41 -45 60 -75 76 -126 27 -81 28 -117 2 -58
-11 23 -20 42 -22 42 -2 0 0 -55 3 -122 7 -133 15 -159 78 -284 23 -44 47
-107 53 -140 11 -64 3 -194 -13 -194 -5 0 -9 6 -9 13 0 6 -8 29 -18 50 l-17
39 0 -144 c0 -139 -1 -145 -31 -209 -17 -37 -37 -69 -43 -73 -6 -4 -35 18 -67
54 -51 55 -205 190 -217 190 -2 0 1 -17 9 -37 18 -52 17 -141 -3 -202 l-16
-52 -41 44 c-23 24 -54 54 -70 68 l-29 24 17 -32 c16 -31 22 -123 10 -136 -4
-3 -19 10 -34 31 -15 20 -66 79 -115 130 -119 126 -187 210 -260 322 -66 100
-164 288 -185 353 -7 21 -14 36 -16 34 -6 -6 31 -215 59 -337 14 -58 28 -125
31 -150 4 -25 10 -58 13 -75 5 -28 3 -27 -43 24 -159 175 -246 354 -274 559
-7 51 -10 123 -7 160 l6 67 -35 -40 c-79 -91 -111 -205 -95 -336 6 -40 8 -75
6 -77 -9 -10 -237 232 -280 297 -108 165 -156 319 -163 530 l-4 144 83 -85
c84 -84 129 -119 224 -173 l50 -28 -57 59 c-116 121 -211 294 -260 474 -19 71
-23 108 -22 225 0 124 3 149 27 220 25 75 73 161 121 213 l21 24 6 -109 c5
-70 14 -129 28 -168z m-1344 -972 c557 -178 1156 -569 1655 -1080 362 -369
532 -649 683 -1118 44 -136 110 -396 102 -403 -3 -3 -5 0 -5 7 0 23 -105 235
-190 381 -192 333 -373 586 -617 860 -500 564 -1059 1011 -1677 1342 -119 64
-118 64 49 11z m4173 32 c68 -16 122 -40 122 -54 0 -13 -66 -23 -152 -23 -172
2 -339 57 -247 83 45 13 213 9 277 -6z"/>
</g>
</svg>
